# Blender v2.93.0 OBJ File: 'lampara.blend'
# www.blender.org
mtllib lampara.mtl
o estructura_Plane
v 0.400000 0.000000 0.400000
v 0.000000 0.000000 0.400000
v 0.000000 0.000000 0.000000
v 0.400000 0.000000 0.000000
v 0.252434 2.900000 0.147565
v 0.252434 2.900000 0.252434
v 0.147565 2.900000 0.252434
v 0.147565 2.900000 0.147565
v 0.400000 0.252434 0.400000
v 0.252434 0.400000 0.252434
v 0.147565 0.400000 0.252434
v 0.000000 0.252434 0.400000
v 0.000000 0.252434 0.000000
v 0.147565 0.400000 0.147565
v 0.252434 0.400000 0.147565
v 0.400000 0.252434 0.000000
v 0.147565 3.000000 0.252434
v 0.252434 3.000000 0.252434
v 0.147565 3.000000 0.147565
v 0.252434 3.000000 0.147565
v 1.252434 3.200000 0.252434
v 1.252434 3.200000 0.147565
v 1.252434 3.300000 0.252434
v 1.252434 3.300000 0.147565
v 1.352435 3.200000 0.252434
v 1.352435 3.200000 0.147565
v 1.352435 3.300000 0.252434
v 1.352435 3.300000 0.147565
v 1.352435 3.200000 0.352434
v 1.352435 3.300000 0.352434
v 1.352435 3.200000 0.047565
v 1.352435 3.300000 0.047565
v 1.752434 3.200000 0.252434
v 1.752434 3.200000 0.147565
v 1.752434 3.300000 0.252434
v 1.752434 3.300000 0.147565
v 1.752434 3.200000 0.352434
v 1.752434 3.300000 0.352434
v 1.752434 3.200000 0.047565
v 1.752434 3.300000 0.047565
vt 0.002719 0.003980
vt 0.002491 0.003979
vt 0.002611 0.000000
vt 0.002601 0.006242
vt 0.002603 0.005062
vt 0.001457 0.836565
vt 0.001118 0.838600
vt 0.001152 0.836565
vt 0.002735 0.007884
vt 0.001068 0.837213
vt 0.002669 0.008157
vt 0.002669 0.005569
vt 0.002605 0.003784
vt 0.002506 0.008026
vt 0.002535 0.005569
vt 0.002484 0.007663
vt 0.001539 0.837214
vt 0.001874 0.840783
vt 0.001483 0.838600
vt 0.000612 0.994140
vt 0.000635 0.997435
vt 0.000720 0.840785
vt 0.001709 0.995001
vt 0.001103 0.995559
vt 0.001049 1.000000
vt 0.000455 0.997698
vt 0.001619 0.998830
vt 0.000915 0.997757
vt 0.000761 0.996219
vt 0.001225 0.997041
vt 0.002346 0.998424
vt 0.001782 0.996800
vt 0.001708 0.999285
vt 0.002028 0.998624
vt 0.002328 0.999004
vt 0.001074 0.999231
vt 0.000000 0.997370
vt 0.001276 0.998930
vt 0.002735 0.998487
vt 0.002149 0.996258
vn 0.0000 1.0000 0.0000
vn 0.0000 0.0000 -1.0000
vn 1.0000 0.0000 0.0000
vn 0.0000 0.0000 1.0000
vn 0.7071 -0.7071 0.0000
vn -0.7071 -0.7071 0.0000
vn 0.0000 -0.7071 -0.7071
vn 0.0000 -0.7071 0.7071
vn -1.0000 0.0000 0.0000
vn 0.0000 -1.0000 0.0000
vn 0.2873 -0.9578 0.0000
vn -0.2873 0.9578 0.0000
usemtl Material.001
s off
f 2/1/1 4/2/1 3/3/1
f 2/1/2 9/4/2 1/5/2
f 8/6/3 17/7/3 7/8/3
f 11/9/2 6/10/2 10/11/2
f 3/3/3 12/12/3 2/1/3
f 4/2/4 13/13/4 3/3/4
f 13/13/5 11/9/5 12/12/5
f 9/4/6 15/14/6 16/15/6
f 11/9/7 9/4/7 12/12/7
f 16/15/8 14/16/8 13/13/8
f 1/5/9 16/15/9 4/2/9
f 15/14/4 8/6/4 14/16/4
f 10/11/9 5/17/9 15/14/9
f 14/16/3 7/8/3 11/9/3
f 20/18/10 17/7/10 19/19/10
f 5/17/4 19/19/4 8/6/4
f 20/18/4 22/20/4 24/21/4
f 7/8/2 18/22/2 6/10/2
f 21/23/1 26/24/1 22/20/1
f 20/18/11 23/25/11 18/22/11
f 18/22/2 21/23/2 6/10/2
f 6/10/12 22/20/12 5/17/12
f 30/26/1 35/27/1 27/28/1
f 23/25/2 25/29/2 21/23/2
f 24/21/10 27/28/10 23/25/10
f 22/20/4 28/30/4 24/21/4
f 28/30/10 35/27/10 27/28/10
f 28/30/1 40/31/1 32/32/1
f 33/33/9 36/34/9 34/35/9
f 35/27/3 37/36/3 33/33/3
f 34/35/3 40/31/3 36/34/3
f 29/37/4 38/38/4 30/26/4
f 32/32/2 39/39/2 31/40/2
f 26/24/3 32/32/3 28/30/3
f 30/26/3 25/29/3 27/28/3
f 2/1/1 1/5/1 4/2/1
f 2/1/2 12/12/2 9/4/2
f 8/6/3 19/19/3 17/7/3
f 11/9/2 7/8/2 6/10/2
f 3/3/3 13/13/3 12/12/3
f 4/2/4 16/15/4 13/13/4
f 13/13/5 14/16/5 11/9/5
f 9/4/6 10/11/6 15/14/6
f 11/9/7 10/11/7 9/4/7
f 16/15/8 15/14/8 14/16/8
f 1/5/9 9/4/9 16/15/9
f 15/14/4 5/17/4 8/6/4
f 10/11/9 6/10/9 5/17/9
f 14/16/3 8/6/3 7/8/3
f 20/18/10 18/22/10 17/7/10
f 5/17/4 20/18/4 19/19/4
f 20/18/4 5/17/4 22/20/4
f 7/8/2 17/7/2 18/22/2
f 21/23/1 25/29/1 26/24/1
f 20/18/11 24/21/11 23/25/11
f 18/22/2 23/25/2 21/23/2
f 6/10/12 21/23/12 22/20/12
f 30/26/1 38/38/1 35/27/1
f 23/25/2 27/28/2 25/29/2
f 24/21/10 28/30/10 27/28/10
f 22/20/4 26/24/4 28/30/4
f 28/30/10 36/34/10 35/27/10
f 28/30/1 36/34/1 40/31/1
f 33/33/9 35/27/9 36/34/9
f 35/27/3 38/38/3 37/36/3
f 34/35/3 39/39/3 40/31/3
f 29/37/4 37/36/4 38/38/4
f 32/32/2 40/31/2 39/39/2
f 26/24/3 31/40/3 32/32/3
f 30/26/3 29/37/3 25/29/3
o foco_Plane.001
v 1.538421 3.286882 0.067858
v 1.512252 3.286882 0.070435
v 1.487090 3.286882 0.078068
v 1.463899 3.286882 0.090463
v 1.443573 3.286882 0.107145
v 1.426891 3.286882 0.127471
v 1.414496 3.286882 0.150661
v 1.406863 3.286882 0.175824
v 1.404286 3.286882 0.201993
v 1.406863 3.286882 0.228161
v 1.414496 3.286882 0.253324
v 1.426891 3.286882 0.276514
v 1.443573 3.286882 0.296841
v 1.463899 3.286882 0.313522
v 1.487090 3.286882 0.325918
v 1.512252 3.286882 0.333551
v 1.538421 3.286882 0.336128
v 1.564589 3.286882 0.333551
v 1.589752 3.286882 0.325918
v 1.612942 3.286882 0.313522
v 1.633269 3.286882 0.296841
v 1.649950 3.286882 0.276514
v 1.662346 3.286882 0.253324
v 1.669979 3.286882 0.228161
v 1.672556 3.286882 0.201993
v 1.669979 3.286882 0.175824
v 1.662346 3.286882 0.150661
v 1.649950 3.286882 0.127471
v 1.633269 3.286882 0.107145
v 1.612942 3.286882 0.090463
v 1.589752 3.286882 0.078068
v 1.564589 3.286882 0.070435
v 1.512252 3.236882 0.070435
v 1.538421 3.236882 0.067858
v 1.487090 3.236882 0.078068
v 1.463899 3.236882 0.090463
v 1.443573 3.236882 0.107145
v 1.426891 3.236882 0.127471
v 1.414496 3.236882 0.150661
v 1.406863 3.236882 0.175824
v 1.404286 3.236882 0.201993
v 1.406863 3.236882 0.228161
v 1.414496 3.236882 0.253324
v 1.426891 3.236882 0.276514
v 1.443573 3.236882 0.296841
v 1.463899 3.236882 0.313522
v 1.487090 3.236882 0.325918
v 1.512252 3.236882 0.333551
v 1.538421 3.236882 0.336128
v 1.564589 3.236882 0.333551
v 1.589752 3.236882 0.325918
v 1.612942 3.236882 0.313522
v 1.633269 3.236882 0.296841
v 1.649950 3.236882 0.276514
v 1.662346 3.236882 0.253324
v 1.669979 3.236882 0.228161
v 1.672556 3.236882 0.201993
v 1.669979 3.236882 0.175824
v 1.662346 3.236882 0.150661
v 1.649950 3.236882 0.127471
v 1.633269 3.236882 0.107145
v 1.612942 3.236882 0.090463
v 1.589752 3.236882 0.078068
v 1.564589 3.236882 0.070435
v 1.512252 3.216882 0.070435
v 1.538421 3.216882 0.067858
v 1.487090 3.216882 0.078068
v 1.463899 3.216882 0.090463
v 1.443573 3.216882 0.107145
v 1.426891 3.216882 0.127471
v 1.414496 3.216882 0.150661
v 1.406863 3.216882 0.175824
v 1.404286 3.216882 0.201993
v 1.406863 3.216882 0.228161
v 1.414496 3.216882 0.253324
v 1.426891 3.216882 0.276514
v 1.443573 3.216882 0.296841
v 1.463899 3.216882 0.313522
v 1.487090 3.216882 0.325918
v 1.512252 3.216882 0.333551
v 1.538421 3.216882 0.336128
v 1.564589 3.216882 0.333551
v 1.589752 3.216882 0.325918
v 1.612942 3.216882 0.313522
v 1.633269 3.216882 0.296841
v 1.649950 3.216882 0.276514
v 1.662346 3.216882 0.253324
v 1.669979 3.216882 0.228161
v 1.672556 3.216882 0.201993
v 1.669979 3.216882 0.175824
v 1.662346 3.216882 0.150661
v 1.649950 3.216882 0.127471
v 1.633269 3.216882 0.107145
v 1.612942 3.216882 0.090463
v 1.589752 3.216882 0.078068
v 1.564589 3.216882 0.070435
vt 0.644562 0.019215
vt 0.018938 0.353818
vt 0.352827 0.980917
vt 0.533362 0.157782
vt 0.471043 0.205937
vt 0.466005 0.157818
vt 0.735178 0.943303
vt 0.715828 0.766874
vt 0.816970 0.888596
vt 0.056309 0.262790
vt 0.170864 0.398581
vt 0.763313 0.719402
vt 0.886396 0.818919
vt 0.157963 0.464835
vt 0.000007 0.450339
vt 0.800702 0.663533
vt 0.940819 0.736990
vt 0.158156 0.532438
vt 0.000000 0.548661
vt 0.826308 0.601328
vt 0.978129 0.646024
vt 0.170709 0.598952
vt 0.018843 0.645277
vt 0.839196 0.535120
vt 0.997025 0.549582
vt 0.195909 0.661571
vt 0.056117 0.736475
vt 0.838990 0.467567
vt 0.997025 0.451345
vt 0.232876 0.717843
vt 0.110542 0.818620
vt 0.826448 0.401096
vt 0.978204 0.354811
vt 0.280188 0.765645
vt 0.180027 0.888461
vt 0.548087 0.000056
vt 0.801266 0.338508
vt 0.940979 0.263678
vt 0.335891 0.803284
vt 0.261858 0.943278
vt 0.449770 0.000000
vt 0.764328 0.282253
vt 0.886620 0.181573
vt 0.397931 0.829136
vt 0.399788 0.170481
vt 0.353234 0.018990
vt 0.717047 0.234455
vt 0.817213 0.111744
vt 0.463954 0.842221
vt 0.449348 1.000000
vt 0.337462 0.195845
vt 0.262221 0.056497
vt 0.661379 0.196795
vt 0.735462 0.056905
vt 0.531322 0.842134
vt 0.547686 0.999965
vt 0.281460 0.232983
vt 0.180345 0.111157
vt 0.599366 0.170913
vt 0.597571 0.829406
vt 0.644217 0.980885
vt 0.233922 0.280459
vt 0.110817 0.180829
vt 0.659873 0.804028
vt 0.196501 0.336346
vt 0.790566 0.472617
vt 0.526227 0.794017
vt 0.206618 0.527382
vt 0.274726 0.649071
vt 0.260416 0.663873
vt 0.257442 0.650480
vt 0.411348 0.783171
vt 0.413869 0.216366
vt 0.242467 0.672306
vt 0.235924 0.654020
vt 0.468060 0.794408
vt 0.360254 0.237951
vt 0.639092 0.239136
vt 0.312135 0.269699
vt 0.585921 0.216859
vt 0.583489 0.783492
vt 0.271315 0.310534
vt 0.637080 0.761950
vt 0.238995 0.358439
vt 0.685153 0.730184
vt 0.216974 0.411831
vt 0.725932 0.689349
vt 0.205956 0.468816
vt 0.758227 0.641466
vt 0.780222 0.588094
vt 0.216823 0.584975
vt 0.791230 0.531134
vt 0.238223 0.638914
vt 0.269783 0.687298
vt 0.780360 0.415064
vt 0.093640 0.633758
vt 0.131097 0.687061
vt 0.093640 0.687061
vt 0.529217 0.205585
vt 0.758968 0.361150
vt 0.358158 0.760921
vt 0.686764 0.271687
vt 0.727425 0.312775
vt 0.310464 0.728390
vt 0.275971 0.660063
vt 0.131097 0.633758
vn 0.0000 1.0000 0.0000
vn -0.2903 0.0000 -0.9569
vn 0.7730 0.0000 0.6344
vn -0.9952 0.0000 -0.0980
vn 0.8819 0.0000 0.4714
vn -0.9952 0.0000 0.0980
vn 0.9569 0.0000 0.2903
vn -0.9569 0.0000 0.2903
vn 0.9952 0.0000 0.0980
vn -0.8819 0.0000 0.4714
vn 0.9952 0.0000 -0.0980
vn -0.7730 0.0000 0.6344
vn 0.9569 0.0000 -0.2903
vn -0.6344 0.0000 0.7730
vn 0.8819 0.0000 -0.4714
vn -0.4714 0.0000 0.8819
vn -0.0980 0.0000 -0.9952
vn 0.7730 0.0000 -0.6344
vn -0.2903 0.0000 0.9569
vn 0.6344 0.0000 -0.7730
vn -0.0980 0.0000 0.9952
vn -0.4714 0.0000 -0.8819
vn 0.4714 0.0000 -0.8819
vn 0.0980 0.0000 0.9952
vn -0.6344 0.0000 -0.7730
vn 0.2903 0.0000 -0.9569
vn 0.2903 0.0000 0.9569
vn -0.7730 0.0000 -0.6344
vn 0.0980 0.0000 -0.9952
vn 0.4714 0.0000 0.8819
vn -0.8819 0.0000 -0.4714
vn 0.6344 0.0000 0.7730
vn -0.9569 0.0000 -0.2903
vn 0.0000 -1.0000 0.0000
vn 0.0000 1.0000 -0.0001
vn 0.0000 1.0000 0.0001
vn 0.0000 -1.0000 0.0001
vn 0.0000 -1.0000 -0.0001
usemtl Material.002
s off
f 41/41/13 49/42/13 57/43/13
f 73/44/14 107/45/14 75/46/14
f 61/47/15 94/48/15 62/49/15
f 48/50/16 81/51/16 49/42/16
f 62/49/17 95/52/17 63/53/17
f 49/42/18 82/54/18 50/55/18
f 63/53/19 96/56/19 64/57/19
f 50/55/20 83/58/20 51/59/20
f 64/57/21 97/60/21 65/61/21
f 51/59/22 84/62/22 52/63/22
f 65/61/23 98/64/23 66/65/23
f 52/63/24 85/66/24 53/67/24
f 66/65/25 99/68/25 67/69/25
f 53/67/26 86/70/26 54/71/26
f 67/69/27 100/72/27 68/73/27
f 54/71/28 87/74/28 55/75/28
f 41/41/29 73/44/29 42/76/29
f 68/73/30 101/77/30 69/78/30
f 55/75/31 88/79/31 56/80/31
f 42/76/14 75/46/14 43/81/14
f 69/78/32 102/82/32 70/83/32
f 56/80/33 89/84/33 57/43/33
f 43/81/34 76/85/34 44/86/34
f 70/83/35 103/87/35 71/88/35
f 57/43/36 90/89/36 58/90/36
f 44/86/37 77/91/37 45/92/37
f 71/88/38 104/93/38 72/94/38
f 58/90/39 91/95/39 59/96/39
f 45/92/40 78/97/40 46/98/40
f 72/94/41 74/99/41 41/41/41
f 59/96/42 92/100/42 60/101/42
f 46/98/43 79/102/43 47/103/43
f 60/101/44 93/104/44 61/47/44
f 47/103/45 80/105/45 48/50/45
f 131/106/46 123/107/46 115/108/46
f 101/109/32 134/110/32 102/111/32
f 88/79/33 121/112/33 89/84/33
f 75/46/34 108/113/34 76/85/34
f 102/111/35 135/114/35 103/115/35
f 89/84/36 122/116/36 90/89/36
f 76/85/37 109/117/37 77/91/37
f 103/87/38 136/118/38 104/93/38
f 90/89/39 123/107/39 91/95/39
f 77/91/40 110/119/40 78/97/40
f 104/93/41 106/120/41 74/99/41
f 91/95/42 124/121/42 92/100/42
f 78/97/43 111/122/43 79/102/43
f 92/100/44 125/123/44 93/104/44
f 79/102/45 112/124/45 80/105/45
f 93/104/15 126/125/15 94/48/15
f 80/105/16 113/126/16 81/51/16
f 94/48/17 127/127/17 95/52/17
f 81/51/18 114/128/18 82/54/18
f 95/52/19 128/129/19 96/56/19
f 82/54/20 115/108/20 83/58/20
f 96/56/21 129/130/21 97/60/21
f 83/58/22 116/131/22 84/62/22
f 97/60/23 130/132/23 98/64/23
f 84/62/24 117/133/24 85/66/24
f 98/64/25 131/106/25 99/68/25
f 85/66/26 118/134/26 86/70/26
f 99/68/27 132/135/27 100/72/27
f 86/136/28 119/137/28 87/138/28
f 74/99/29 105/139/29 73/44/29
f 100/72/30 133/140/30 101/77/30
f 87/74/31 120/141/31 88/79/31
f 41/41/13 42/76/13 43/81/13
f 43/81/47 44/86/47 45/92/47
f 45/92/13 46/98/13 47/103/13
f 47/103/13 48/50/13 49/42/13
f 49/42/13 50/55/13 51/59/13
f 51/59/13 52/63/13 53/67/13
f 53/67/48 54/71/48 55/75/48
f 55/75/13 56/80/13 57/43/13
f 57/43/13 58/90/13 59/96/13
f 59/96/48 60/101/48 61/47/48
f 61/47/13 62/49/13 63/53/13
f 63/53/13 64/57/13 65/61/13
f 65/61/13 66/65/13 67/69/13
f 67/69/13 68/73/13 69/78/13
f 69/78/47 70/83/47 71/88/47
f 71/88/13 72/94/13 41/41/13
f 41/41/13 43/81/13 45/92/13
f 45/92/13 47/103/13 41/41/13
f 47/103/13 49/42/13 41/41/13
f 49/42/13 51/59/13 57/43/13
f 51/59/13 53/67/13 57/43/13
f 53/67/13 55/75/13 57/43/13
f 57/43/13 59/96/13 61/47/13
f 61/47/13 63/53/13 57/43/13
f 63/53/13 65/61/13 57/43/13
f 65/61/13 67/69/13 69/78/13
f 69/78/13 71/88/13 41/41/13
f 65/61/13 69/78/13 57/43/13
f 69/78/13 41/41/13 57/43/13
f 73/44/14 105/139/14 107/45/14
f 61/47/15 93/104/15 94/48/15
f 48/50/16 80/105/16 81/51/16
f 62/49/17 94/48/17 95/52/17
f 49/42/18 81/51/18 82/54/18
f 63/53/19 95/52/19 96/56/19
f 50/55/20 82/54/20 83/58/20
f 64/57/21 96/56/21 97/60/21
f 51/59/22 83/58/22 84/62/22
f 65/61/23 97/60/23 98/64/23
f 52/63/24 84/62/24 85/66/24
f 66/65/25 98/64/25 99/68/25
f 53/67/26 85/66/26 86/70/26
f 67/69/27 99/68/27 100/72/27
f 54/71/28 86/70/28 87/74/28
f 41/41/29 74/99/29 73/44/29
f 68/73/30 100/72/30 101/77/30
f 55/75/31 87/74/31 88/79/31
f 42/76/14 73/44/14 75/46/14
f 69/78/32 101/77/32 102/82/32
f 56/80/33 88/79/33 89/84/33
f 43/81/34 75/46/34 76/85/34
f 70/83/35 102/82/35 103/87/35
f 57/43/36 89/84/36 90/89/36
f 44/86/37 76/85/37 77/91/37
f 71/88/38 103/87/38 104/93/38
f 58/90/39 90/89/39 91/95/39
f 45/92/40 77/91/40 78/97/40
f 72/94/41 104/93/41 74/99/41
f 59/96/42 91/95/42 92/100/42
f 46/98/43 78/97/43 79/102/43
f 60/101/44 92/100/44 93/104/44
f 47/103/45 79/102/45 80/105/45
f 107/45/46 105/139/46 106/120/46
f 106/120/46 136/118/46 135/142/46
f 135/142/46 134/143/46 133/140/46
f 133/140/49 132/135/49 131/106/49
f 131/106/46 130/132/46 129/130/46
f 129/130/46 128/129/46 127/127/46
f 127/127/50 126/125/50 125/123/50
f 125/123/46 124/121/46 127/127/46
f 124/121/46 123/107/46 127/127/46
f 123/107/46 122/116/46 121/112/46
f 121/112/46 120/141/46 119/144/46
f 119/144/46 118/134/46 117/133/46
f 117/133/50 116/131/50 115/108/50
f 115/108/46 114/128/46 113/126/46
f 113/126/46 112/124/46 111/122/46
f 111/122/49 110/119/49 109/117/49
f 109/117/46 108/113/46 107/45/46
f 107/45/46 106/120/46 135/142/46
f 135/142/46 133/140/46 131/106/46
f 131/106/46 129/130/46 127/127/46
f 123/107/46 121/112/46 119/144/46
f 119/144/46 117/133/46 115/108/46
f 115/108/46 113/126/46 111/122/46
f 111/122/46 109/117/46 107/45/46
f 107/45/46 135/142/46 131/106/46
f 131/106/46 127/127/46 123/107/46
f 123/107/46 119/144/46 115/108/46
f 115/108/46 111/122/46 107/45/46
f 107/45/46 131/106/46 115/108/46
f 101/109/32 133/145/32 134/110/32
f 88/79/33 120/141/33 121/112/33
f 75/46/34 107/45/34 108/113/34
f 102/111/35 134/110/35 135/114/35
f 89/84/36 121/112/36 122/116/36
f 76/85/37 108/113/37 109/117/37
f 103/87/38 135/142/38 136/118/38
f 90/89/39 122/116/39 123/107/39
f 77/91/40 109/117/40 110/119/40
f 104/93/41 136/118/41 106/120/41
f 91/95/42 123/107/42 124/121/42
f 78/97/43 110/119/43 111/122/43
f 92/100/44 124/121/44 125/123/44
f 79/102/45 111/122/45 112/124/45
f 93/104/15 125/123/15 126/125/15
f 80/105/16 112/124/16 113/126/16
f 94/48/17 126/125/17 127/127/17
f 81/51/18 113/126/18 114/128/18
f 95/52/19 127/127/19 128/129/19
f 82/54/20 114/128/20 115/108/20
f 96/56/21 128/129/21 129/130/21
f 83/58/22 115/108/22 116/131/22
f 97/60/23 129/130/23 130/132/23
f 84/62/24 116/131/24 117/133/24
f 98/64/25 130/132/25 131/106/25
f 85/66/26 117/133/26 118/134/26
f 99/68/27 131/106/27 132/135/27
f 86/136/28 118/146/28 119/137/28
f 74/99/29 106/120/29 105/139/29
f 100/72/30 132/135/30 133/140/30
f 87/74/31 119/144/31 120/141/31
