# Blender v2.93.0 OBJ File: 'mesaf.blend'
# www.blender.org
mtllib mesaf.mtl
o base_Plane.002
v -1.000000 0.000000 1.000000
v 0.000000 0.000000 1.000000
v 0.000000 1.000000 1.000000
v -1.000000 1.000000 1.000000
v -0.978352 0.978352 1.000000
v -0.021648 0.978352 1.000000
v -0.978352 0.021648 1.000000
v -0.021648 0.021648 1.000000
v -0.978352 0.978352 0.970000
v -0.021648 0.978352 0.970000
v -0.978352 0.021648 0.970000
v -0.021648 0.021648 0.970000
v -1.000000 1.000000 0.970000
v 0.000000 1.000000 0.970000
v -1.000000 0.000000 0.970000
v 0.000000 0.000000 0.970000
v -0.978352 0.978352 -1.530000
v -0.021648 0.978352 -1.530000
v -0.978352 0.021648 -1.530000
v -0.021648 0.021648 -1.530000
v -1.000000 1.000000 -1.530000
v 0.000000 1.000000 -1.530000
v -1.000000 0.000000 -1.530000
v 0.000000 0.000000 -1.530000
v -0.978352 0.978352 -1.560000
v -0.021648 0.978352 -1.560000
v -0.978352 0.021648 -1.560000
v -0.021648 0.021648 -1.560000
v -1.000000 1.000000 -1.560000
v 0.000000 1.000000 -1.560000
v -1.000000 0.000000 -1.560000
v 0.000000 0.000000 -1.560000
v -1.000000 1.050000 1.000000
v 0.000000 1.050000 1.000000
v -1.000000 1.050000 0.970000
v 0.000000 1.050000 0.970000
v -1.000000 1.050000 -1.530000
v 0.000000 1.050000 -1.530000
v -1.000000 1.050000 -1.560000
v 0.000000 1.050000 -1.560000
vt 0.463593 0.499707
vt 0.484078 0.528132
vt 0.457548 0.520725
vt 0.462243 0.021300
vt 0.454837 0.475217
vt 0.452762 0.034727
vt 0.020168 0.468736
vt 0.025597 0.098796
vt 0.027624 0.460655
vt 0.464178 0.484096
vt 0.015455 0.091156
vt 0.485634 0.473470
vt 0.438351 0.462658
vt 0.440897 0.053124
vt 0.468119 0.000000
vt 0.000000 0.079348
vt 0.039415 0.108576
vt 0.037970 0.445752
vt 0.008387 0.481447
vt 0.015208 0.583191
vt 0.000000 0.571260
vt 0.032802 0.938661
vt 0.022810 0.590550
vt 0.036584 0.600414
vt 0.433057 0.959356
vt 0.022324 0.953468
vt 0.012219 0.961940
vt 0.000139 0.974550
vt 0.448249 0.530634
vt 0.459275 0.984232
vt 0.449576 0.972076
vt 0.480800 0.973683
vt 0.436336 0.548821
vt 0.463939 1.000000
vt 0.488851 0.028579
vt 0.502744 0.486225
vt 0.497958 0.986556
vt 0.497958 0.517117
vt 0.468938 0.499707
vt 0.502744 0.017479
vn -1.0000 0.0000 0.0000
vn 0.0000 0.0000 1.0000
vn 1.0000 0.0000 0.0000
vn 0.0000 -1.0000 0.0000
vn 0.0000 1.0000 0.0000
vn 0.0000 0.0000 -1.0000
usemtl metal
s off
f 21/1/1 39/2/1 29/3/1
f 3/4/2 5/5/2 6/6/2
f 1/7/2 8/8/2 7/9/2
f 4/10/2 7/9/2 5/5/2
f 2/11/2 6/6/2 8/8/2
f 3/4/2 33/12/2 4/10/2
f 7/9/3 9/13/3 5/5/3
f 5/5/4 10/14/4 6/6/4
f 2/11/3 14/15/3 3/4/3
f 1/7/4 16/16/4 2/11/4
f 6/6/1 12/17/1 8/8/1
f 8/8/5 11/18/5 7/9/5
f 4/10/1 15/19/1 1/7/1
f 21/1/1 31/20/1 23/21/1
f 20/22/5 27/23/5 19/24/5
f 18/25/1 28/26/1 20/22/1
f 23/21/4 32/27/4 24/28/4
f 25/29/6 30/30/6 26/31/6
f 28/26/6 31/20/6 27/23/6
f 27/23/6 29/3/6 25/29/6
f 26/31/6 32/27/6 28/26/6
f 29/3/6 40/32/6 30/30/6
f 19/24/3 25/29/3 17/33/3
f 17/33/4 26/31/4 18/25/4
f 24/28/3 30/30/3 22/34/3
f 34/35/5 35/36/5 33/12/5
f 38/37/5 39/2/5 37/38/5
f 14/15/3 34/35/3 3/4/3
f 30/30/3 38/37/3 22/34/3
f 4/10/1 35/36/1 13/39/1
f 21/1/1 37/38/1 39/2/1
f 3/4/2 4/10/2 5/5/2
f 1/7/2 2/11/2 8/8/2
f 4/10/2 1/7/2 7/9/2
f 2/11/2 3/4/2 6/6/2
f 3/4/2 34/35/2 33/12/2
f 7/9/3 11/18/3 9/13/3
f 5/5/4 9/13/4 10/14/4
f 2/11/3 16/16/3 14/15/3
f 1/7/4 15/19/4 16/16/4
f 6/6/1 10/14/1 12/17/1
f 8/8/5 12/17/5 11/18/5
f 4/10/1 13/39/1 15/19/1
f 21/1/1 29/3/1 31/20/1
f 20/22/5 28/26/5 27/23/5
f 18/25/1 26/31/1 28/26/1
f 23/21/4 31/20/4 32/27/4
f 25/29/6 29/3/6 30/30/6
f 28/26/6 32/27/6 31/20/6
f 27/23/6 31/20/6 29/3/6
f 26/31/6 30/30/6 32/27/6
f 29/3/6 39/2/6 40/32/6
f 19/24/3 27/23/3 25/29/3
f 17/33/4 25/29/4 26/31/4
f 24/28/3 32/27/3 30/30/3
f 34/35/5 36/40/5 35/36/5
f 38/37/5 40/32/5 39/2/5
f 14/15/3 36/40/3 34/35/3
f 30/30/3 40/32/3 38/37/3
f 4/10/1 33/12/1 35/36/1
o marmol_Plane.003
v -0.978352 0.978352 0.970000
v -0.021648 0.978352 0.970000
v 0.000000 1.000000 0.970000
v -0.978352 0.978352 -1.530000
v -0.021648 0.978352 -1.530000
v 0.000000 1.000000 -1.530000
v -1.000000 1.050000 0.970000
v 0.000000 1.050000 0.970000
v -1.000000 1.050000 -1.530000
v 0.000000 1.050000 -1.530000
v -1.000000 1.000000 0.970000
v -1.000000 1.000000 -1.530000
v -1.000000 1.050000 0.970000
v -1.000000 1.050000 -1.530000
vt 0.000000 1.000000
vt 1.000000 0.000000
vt 1.000000 1.000000
vt 0.000000 1.000000
vt 1.000000 0.000000
vt 1.000000 1.000000
vt 0.000000 0.232989
vt 0.554735 0.221894
vt 0.554735 0.232990
vt 0.000001 0.445277
vt 0.011095 1.000000
vt 0.000000 1.000000
vt 0.000000 0.000000
vt 0.000000 0.000000
vt 0.000000 0.221894
vt 0.011095 0.445276
vn 0.0000 -1.0000 0.0000
vn 0.0000 1.0000 0.0000
vn 1.0000 0.0000 0.0000
vn -1.0000 0.0000 0.0000
usemtl Material.001
s off
f 41/41/7 45/42/7 42/43/7
f 48/44/8 49/45/8 47/46/8
f 46/47/9 48/48/9 43/49/9
f 51/50/10 54/51/10 52/52/10
f 41/41/7 44/53/7 45/42/7
f 48/44/8 50/54/8 49/45/8
f 46/47/9 50/55/9 48/48/9
f 51/50/10 53/56/10 54/51/10
