# Blender v2.93.0 OBJ File: 'camastrof.blend'
# www.blender.org
mtllib camastrof.mtl
o colchon_Plane
v 0.500000 0.499113 -1.625000
v -0.500000 0.499113 -1.625000
v 0.500000 0.499113 0.375000
v -0.500000 0.499113 0.375000
v 0.500000 0.499113 -1.625000
v -0.500000 0.499113 -1.625000
v 0.500000 0.499113 0.375000
v -0.500000 0.499113 0.375000
v 0.500000 0.549113 -1.625000
v -0.500000 0.549113 -1.625000
v 0.500000 0.549113 0.375000
v -0.500000 0.549113 0.375000
v 0.500000 0.499113 0.375000
v -0.500000 0.499113 0.375000
v 0.500000 0.549113 0.375000
v -0.500000 0.549113 0.375000
v 0.500000 0.998936 1.375000
v -0.500000 0.998936 1.375000
v 0.500000 1.048936 1.375000
v -0.500000 1.048936 1.375000
vt 0.926846 0.000000
vt 0.949452 0.904239
vt 0.926846 0.904239
vt 0.000000 0.880065
vt 0.000000 0.880065
vt 0.000000 0.880065
vt 0.000000 0.880065
vt 0.000000 0.880065
vt 0.000000 0.880065
vt 0.000000 0.880065
vt 0.000000 0.880065
vt 0.000000 0.880065
vt 0.452120 0.000000
vt 0.452120 0.880065
vt 0.989893 0.000000
vt 1.000000 0.452120
vt 0.989893 0.452120
vt 0.904240 0.000000
vt 0.926846 0.904239
vt 0.904240 0.904239
vt 0.949452 0.515556
vt 0.972058 0.967676
vt 0.949452 0.967676
vt 0.000000 0.880065
vt 0.000000 0.880065
vt 0.000000 0.880065
vt 0.000000 0.880065
vt 0.000000 0.880065
vt 0.452120 0.997386
vt 0.904240 0.505450
vt 0.904240 0.997386
vt 0.972058 0.515556
vt 0.994663 0.967676
vt 0.972058 0.967676
vt 0.949452 0.010107
vt 0.969672 0.505450
vt 0.949452 0.515556
vt 0.452120 0.505450
vt 0.904240 0.000000
vt 0.904240 0.505450
vt 0.989893 0.010107
vt 0.969672 0.505450
vt 0.969672 0.000000
vt 0.949452 0.000000
vt 0.000000 0.000000
vt 1.000000 0.000000
vt 0.926846 0.000000
vt 0.972058 0.515556
vt 0.000000 0.880065
vt 0.452120 0.505450
vt 0.994663 0.515556
vt 0.969672 0.000000
vt 0.452120 0.000000
vt 0.989893 0.515556
vn 1.0000 0.0000 -0.0000
vn 0.0000 0.0000 1.0000
vn 0.0000 1.0000 0.0000
vn -1.0000 0.0000 0.0000
vn 0.0000 0.0000 -1.0000
vn 0.0000 0.8945 -0.4471
vn 0.0000 -0.8945 0.4471
usemtl tela
s off
f 5/1/1 11/2/1 7/3/1
f 3/4/2 5/5/2 7/6/2
f 1/7/2 6/8/2 5/5/2
f 4/9/2 7/6/2 8/10/2
f 2/11/2 8/10/2 6/8/2
f 10/12/3 11/13/3 9/14/3
f 7/15/2 12/16/2 8/17/2
f 8/18/4 10/19/4 6/20/4
f 6/21/5 9/22/5 5/23/5
f 12/24/2 15/25/2 16/26/2
f 3/4/2 14/27/2 13/28/2
f 14/29/6 17/30/6 13/31/6
f 18/32/5 19/33/5 17/34/5
f 15/35/4 17/36/4 19/37/4
f 15/38/7 20/39/7 16/40/7
f 16/41/1 18/42/1 14/43/1
f 5/1/1 9/44/1 11/2/1
f 3/4/2 1/7/2 5/5/2
f 1/7/2 2/11/2 6/8/2
f 4/9/2 3/4/2 7/6/2
f 2/11/2 4/9/2 8/10/2
f 10/12/3 12/45/3 11/13/3
f 7/15/2 11/46/2 12/16/2
f 8/18/4 12/47/4 10/19/4
f 6/21/5 10/48/5 9/22/5
f 12/24/2 11/49/2 15/25/2
f 3/4/2 4/9/2 14/27/2
f 14/29/6 18/50/6 17/30/6
f 18/32/5 20/51/5 19/33/5
f 15/35/4 13/52/4 17/36/4
f 15/38/7 19/53/7 20/39/7
f 16/41/1 20/54/1 18/42/1
o base_Plane.003
v 0.500000 -0.000887 0.375000
v 0.500000 -0.000887 1.375000
v 0.500000 0.499113 0.375000
v 0.500000 0.499113 1.375000
v 0.500000 -0.000887 0.375000
v 0.500000 -0.000887 1.375000
v -0.500000 -0.000887 0.375000
v -0.500000 -0.000887 1.375000
v 0.500000 0.499113 0.375000
v 0.500000 0.499113 1.375000
v -0.500000 0.499113 0.375000
v -0.500000 0.499113 1.375000
v 0.500000 -0.000887 -1.625000
v 0.500000 -0.000887 -0.625000
v -0.500000 -0.000887 -0.625000
v -0.500000 -0.000887 -1.625000
v 0.500000 0.499113 -1.625000
v 0.500000 0.499113 -0.625000
v -0.500000 0.499113 -0.625000
v -0.500000 0.499113 -1.625000
vt 0.333375 0.620656
vt 0.000124 0.787281
vt 0.000124 0.620656
vt 0.739287 0.999876
vt 0.572662 0.666625
vt 0.739287 0.666625
vt 0.572662 0.333375
vt 0.739287 0.333375
vt 0.572662 0.000124
vt 0.739287 0.000124
vt 0.207214 0.209516
vt 0.365324 0.411016
vt 0.175064 0.398079
vt 0.000124 0.038241
vt 0.572414 0.000124
vt 0.397475 0.222452
vt 0.000124 0.620408
vt 0.572414 0.582290
vt 0.333375 0.787281
vt 0.572662 0.999876
vn 1.0000 0.0000 -0.0000
vn 0.0000 0.0000 1.0000
vn -1.0000 0.0000 0.0000
vn -0.0000 0.0000 -1.0000
vn 0.0000 -1.0000 -0.0000
usemtl madera
s off
f 21/55/8 24/56/8 22/57/8
f 26/58/9 32/59/9 28/60/9
f 28/60/10 31/61/10 27/62/10
f 27/62/11 29/63/11 25/64/11
f 35/65/12 33/66/12 34/67/12
f 34/67/9 39/68/9 35/65/9
f 35/65/10 40/69/10 36/70/10
f 33/66/8 38/71/8 34/67/8
f 36/70/11 37/72/11 33/66/11
f 21/55/8 23/73/8 24/56/8
f 26/58/9 30/74/9 32/59/9
f 28/60/10 32/59/10 31/61/10
f 27/62/11 31/61/11 29/63/11
f 35/65/12 36/70/12 33/66/12
f 34/67/9 38/71/9 39/68/9
f 35/65/10 39/68/10 40/69/10
f 33/66/8 37/72/8 38/71/8
f 36/70/11 40/69/11 37/72/11
