# Blender v2.93.0 OBJ File: 'ventanales3.blend'
# www.blender.org
mtllib ventanales3.mtl
o Plane.013
v 9.400000 2.500000 7.440000
v 7.900000 2.500000 7.440000
v 9.400000 0.000000 7.440000
v 7.900000 0.000000 7.440000
vt 1.000000 0.500000
vt 0.000000 0.750000
vt 0.000000 0.500000
vt 1.000000 0.750000
vn 0.0000 0.0000 -1.0000
usemtl cristal
s off
f 3/1/1 2/2/1 1/3/1
f 3/1/1 4/4/1 2/2/1
o Plane.014
v 10.900000 2.500000 7.440000
v 9.400000 2.500000 7.440000
v 10.900000 0.000000 7.440000
v 9.400000 0.000000 7.440000
vt 1.000000 0.250000
vt 0.000000 0.500000
vt 0.000000 0.250000
vt 1.000000 0.500000
vn 0.0000 0.0000 -1.0000
usemtl cristal
s off
f 7/5/2 6/6/2 5/7/2
f 7/5/2 8/8/2 6/6/2
