# Blender v2.93.0 OBJ File: 'ventanales.blend'
# www.blender.org
mtllib ventanales.mtl
o Plane.008
v 2.500000 5.200000 5.718931
v 4.050000 5.200000 5.718397
v 2.500000 2.700000 5.718931
v 4.050000 2.700000 5.718397
vt 0.000000 0.250000
vt 1.000000 0.500000
vt 0.000000 0.500000
vt 1.000000 0.250000
vn -0.0003 0.0000 -1.0000
usemtl cristal
s off
f 2/1/1 3/2/1 1/3/1
f 2/1/1 4/4/1 3/2/1
o Plane.007
v 0.950000 5.200000 5.719466
v 2.500000 5.200000 5.718931
v 0.950000 2.700000 5.719466
v 2.500000 2.700000 5.718931
vt 0.000000 0.500000
vt 1.000000 0.750000
vt 0.000000 0.750000
vt 1.000000 0.500000
vn -0.0003 0.0000 -1.0000
usemtl cristal
s off
f 6/5/2 7/6/2 5/7/2
f 6/5/2 8/8/2 7/6/2
