# Blender v2.93.0 OBJ File: 'ventanales - copia (2).blend'
# www.blender.org
mtllib ventanales4.mtl
o Plane.015
v 2.500000 0.000000 7.440000
v 4.050000 0.000000 7.440000
v 2.500000 2.500000 7.440000
v 4.050000 2.500000 7.440000
vt 1.000000 0.500000
vt 0.000000 0.250000
vt 0.000000 0.500000
vt 1.000000 0.250000
vn 0.0000 0.0000 1.0000
usemtl cristal
s off
f 1/1/1 4/2/1 3/3/1
f 1/1/1 2/4/1 4/2/1
o Plane.012
v 0.950000 0.000000 7.440000
v 2.500000 0.000000 7.440000
v 0.950000 2.500000 7.440000
v 2.500000 2.500000 7.440000
vt 1.000000 0.750000
vt 0.000000 0.500000
vt 0.000000 0.750000
vt 1.000000 0.500000
vn 0.0000 0.0000 1.0000
usemtl cristal
s off
f 5/5/2 8/6/2 7/7/2
f 5/5/2 6/8/2 8/6/2
