# Blender v2.93.0 OBJ File: 'villaF_cristales.blend'
# www.blender.org
mtllib villaF_cristales.mtl
o Plane.033
v 5.600000 2.700000 7.440000
v 5.600000 2.700000 8.690001
v 5.600000 3.700000 7.440000
v 5.600000 3.700000 8.690001
v -2.260000 2.700000 8.690001
v -2.260000 3.700000 8.690001
v -2.260000 2.700000 5.689110
v -2.260000 3.700000 5.689110
v 5.600000 2.700000 8.690001
v -2.260000 2.700000 8.690001
v 5.600000 3.700000 8.690001
v -2.260000 3.700000 8.690001
vt 0.819720 0.862630
vt 0.780529 0.818419
vt 0.819720 0.818419
vt 0.780529 0.862630
vt 1.000000 0.000000
vt 0.718310 0.381793
vt 0.718310 0.000000
vt 1.000000 0.381793
vt 0.000000 1.000000
vt 0.281690 0.000000
vt 0.281690 1.000000
vt 0.000000 0.000000
vn -1.0000 0.0000 0.0000
vn 1.0000 0.0000 0.0000
vn 0.0000 0.0000 -1.0000
usemtl c2
s off
f 2/1/1 3/2/1 1/3/1
f 2/1/1 4/4/1 3/2/1
f 5/5/2 8/6/2 6/7/2
f 5/5/2 7/8/2 8/6/2
f 9/9/3 12/10/3 11/11/3
f 9/9/3 10/12/3 12/10/3
o Plane.027
v -2.260000 5.200000 -1.047000
v -2.260000 5.200000 0.637028
v -2.260000 2.700000 -1.047000
v -2.260000 2.700000 0.637028
v -2.260000 5.200000 2.321055
v -2.260000 5.200000 0.637028
v -2.260000 2.700000 2.321055
v -2.260000 2.700000 0.637028
v -2.260000 5.200000 2.321055
v -2.260000 5.200000 4.005083
v -2.260000 2.700000 2.321055
v -2.260000 2.700000 4.005083
v -2.260000 5.200000 5.689110
v -2.260000 5.200000 4.005083
v -2.260000 2.700000 5.689110
v -2.260000 2.700000 4.005083
vt 0.846528 0.729999
vt 0.780529 0.641578
vt 0.846528 0.641578
vt 0.780529 0.729999
vt 0.780529 0.464738
vt 0.846528 0.553158
vt 0.780529 0.553158
vt 0.846528 0.464738
vt 0.819720 0.000000
vt 0.885719 0.088420
vt 0.819720 0.088420
vt 0.885719 0.000000
vt 0.780529 0.553158
vt 0.846528 0.641578
vt 0.780529 0.641578
vt 0.846528 0.553158
vn -1.0000 0.0000 0.0000
usemtl c2
s off
f 14/13/4 15/14/4 16/15/4
f 14/13/4 13/16/4 15/14/4
f 20/17/4 17/18/4 18/19/4
f 20/17/4 19/20/4 17/18/4
f 23/21/4 22/22/4 21/23/4
f 23/21/4 24/24/4 22/22/4
f 28/25/4 25/26/4 26/27/4
f 28/25/4 27/28/4 25/26/4
o Plane.020
v 10.900000 5.200000 7.440000
v 12.400000 5.200000 7.440000
v 10.900000 2.700000 7.440000
v 12.400000 2.700000 7.440000
v 7.900000 5.200000 7.440000
v 6.400000 5.200000 7.440000
v 7.900000 2.700000 7.440000
v 6.400000 2.700000 7.440000
v 9.400000 5.200000 7.440000
v 7.900000 5.200000 7.440000
v 9.400000 2.700000 7.440000
v 7.900000 2.700000 7.440000
v 9.400000 5.200000 7.440000
v 10.900000 5.200000 7.440000
v 9.400000 2.700000 7.440000
v 10.900000 2.700000 7.440000
vt 0.960808 0.818419
vt 0.902022 0.729999
vt 0.960808 0.729999
vt 0.902022 0.818419
vt 0.937294 0.366414
vt 0.996081 0.454835
vt 0.937294 0.454835
vt 0.996081 0.366414
vt 0.939254 0.265261
vt 0.880467 0.176841
vt 0.939254 0.176841
vt 0.880467 0.265261
vt 0.880466 0.088420
vt 0.939254 0.176841
vt 0.880466 0.176841
vt 0.939254 0.088420
vn 0.0000 0.0000 1.0000
usemtl c2
s off
f 30/29/5 31/30/5 32/31/5
f 30/29/5 29/32/5 31/30/5
f 40/33/5 37/34/5 38/35/5
f 40/33/5 39/36/5 37/34/5
f 42/37/5 43/38/5 44/39/5
f 42/37/5 41/40/5 43/38/5
f 36/41/5 33/42/5 34/43/5
f 36/41/5 35/44/5 33/42/5
o Plane.021
v 12.799999 2.700000 4.040000
v 12.799999 2.700000 3.040000
v 12.799999 5.200000 4.040000
v 12.799999 5.200000 3.040000
vt 0.000000 0.000000
vt 0.000000 0.000000
vt 0.000000 0.000000
vt 0.000000 0.000000
vn -1.0000 0.0000 0.0000
usemtl None
s off
f 48/45/6 45/46/6 47/47/6
f 48/45/6 46/48/6 45/46/6
o Plane.022
v 12.799999 2.700000 -0.600000
v 12.799999 2.700000 2.040000
v 12.799999 5.200000 -0.600000
v 12.799999 5.200000 2.040000
vt 0.878507 0.277994
vt 0.780529 0.371366
vt 0.780529 0.277994
vt 0.878507 0.371366
vn -1.0000 0.0000 0.0000
usemtl c2
s off
f 49/49/7 52/50/7 51/51/7
f 49/49/7 50/52/7 52/50/7
o Plane.023
v -0.600000 2.700000 5.720000
v -0.600000 5.200000 5.720000
v 0.950000 2.700000 5.719466
v 0.950000 5.200000 5.719466
v 4.050000 2.700000 5.718397
v 2.500000 2.700000 5.718931
v 4.050000 5.200000 5.718397
v 2.500000 5.200000 5.718931
v 5.600000 2.700000 5.717862
v 5.600000 5.200000 5.717862
v 4.050000 2.700000 5.718397
v 4.050000 5.200000 5.718397
v 2.500000 2.700000 5.718931
v 0.950000 2.700000 5.719466
v 2.500000 5.200000 5.718931
v 0.950000 5.200000 5.719466
vt 0.281690 0.000000
vt 0.718310 0.318066
vt 0.281690 0.318066
vt 0.718310 0.000000
vt 0.846528 0.464738
vt 0.907274 0.553158
vt 0.846528 0.553158
vt 0.907274 0.464738
vt 0.819720 0.176841
vt 0.880466 0.265261
vt 0.819720 0.265261
vt 0.880466 0.176841
vt 0.819720 0.088420
vt 0.880466 0.176841
vt 0.819720 0.176841
vt 0.880467 0.088420
vn -0.0003 0.0000 -1.0000
usemtl c2
s off
f 55/53/8 54/54/8 56/55/8
f 55/53/8 53/56/8 54/54/8
f 57/57/8 60/58/8 59/59/8
f 57/57/8 58/60/8 60/58/8
f 61/61/8 64/62/8 62/63/8
f 61/61/8 63/64/8 64/62/8
f 65/65/8 68/66/8 67/67/8
f 65/65/8 66/68/8 68/66/8
o Plane.010
v -0.600000 0.000000 7.440000
v -0.600000 2.500000 7.440000
v 0.950000 0.000000 7.440000
v 0.950000 2.500000 7.440000
v 0.950000 0.000000 7.440000
v 2.500000 0.000000 7.440000
v 0.950000 2.500000 7.440000
v 2.500000 2.500000 7.440000
v 2.500000 0.000000 7.440000
v 4.050000 0.000000 7.440000
v 2.500000 2.500000 7.440000
v 4.050000 2.500000 7.440000
v 5.600000 0.000000 7.440000
v 5.600000 2.500000 7.440000
v 4.050000 0.000000 7.440000
v 4.050000 2.500000 7.440000
vt 0.846528 0.641578
vt 0.907274 0.729999
vt 0.846528 0.729999
vt 0.907274 0.641578
vt 0.780529 0.729999
vt 0.841275 0.818419
vt 0.780529 0.818419
vt 0.841275 0.729999
vt 0.841518 0.557055
vt 0.912284 0.637681
vt 0.851963 0.644857
vt 0.901840 0.549880
vt 0.878507 0.277994
vt 0.939253 0.366414
vt 0.878507 0.366414
vt 0.939253 0.277994
vn 0.0000 0.0000 1.0000
usemtl c2
s off
f 69/69/9 72/70/9 70/71/9
f 69/69/9 71/72/9 72/70/9
f 73/73/9 76/74/9 75/75/9
f 73/73/9 74/76/9 76/74/9
f 77/77/9 80/78/9 79/79/9
f 77/77/9 78/80/9 80/78/9
f 83/81/9 82/82/9 84/83/9
f 83/81/9 81/84/9 82/82/9
o Plane.011
v -1.000000 1.250000 4.410000
v -1.000000 1.875000 4.410000
v -1.000000 1.875000 6.270000
v -1.000000 1.250000 6.270000
vt 0.963748 0.282977
vt 0.939254 0.348762
vt 0.939254 0.282977
vt 0.963748 0.348762
vn 1.0000 0.0000 0.0000
usemtl c2
s off
f 88/85/10 86/86/10 87/87/10
f 88/85/10 85/88/10 86/86/10
o Plane.012
v -1.000000 0.000000 -0.600000
v -1.000000 2.500000 -0.600000
v -1.000000 0.000000 0.401316
v -1.000000 2.500000 0.401316
vt 0.939253 0.194556
vt 0.978496 0.282977
vt 0.939253 0.282977
vt 0.978496 0.194556
vn 1.0000 0.0000 0.0000
usemtl c2
s off
f 91/89/11 90/90/11 92/91/11
f 91/89/11 89/92/11 90/90/11
o Plane.013
v -1.000000 0.000000 1.920000
v -1.000000 0.000000 2.760000
v -1.000000 2.500000 1.920000
v -1.000000 2.500000 2.760000
vt 0.966061 0.464738
vt 0.998982 0.553158
vt 0.966061 0.553158
vt 0.998982 0.464738
vn -1.0000 0.0000 0.0000
usemtl c2
s off
f 93/93/12 96/94/12 95/95/12
f 93/93/12 94/96/12 96/94/12
o Plane.014
v 5.160000 0.000000 -1.000000
v 6.160000 0.000000 -1.000000
v 5.160000 2.500000 -1.000000
v 6.160000 2.500000 -1.000000
vt 0.921617 0.641578
vt 0.960808 0.729999
vt 0.921617 0.729999
vt 0.960808 0.641578
vn 0.0000 0.0000 1.0000
usemtl c2
s off
f 97/97/13 100/98/13 99/99/13
f 97/97/13 98/100/13 100/98/13
o Plane.015
v 2.000000 0.000000 -1.000000
v 1.100000 0.000000 -1.000000
v 2.000000 2.500000 -1.000000
v 1.100000 2.500000 -1.000000
vt 0.960809 0.729999
vt 0.996081 0.818419
vt 0.960809 0.818419
vt 0.996081 0.729999
vn 0.0000 0.0000 -1.0000
usemtl c2
s off
f 101/101/14 104/102/14 103/103/14
f 101/101/14 102/104/14 104/102/14
o Plane.001
v 12.799999 0.000000 -0.600000
v 12.799999 0.000000 2.040000
v 12.799999 2.500000 -0.600000
v 12.799999 2.500000 2.040000
vt 0.878507 0.371366
vt 0.780529 0.464738
vt 0.780529 0.371366
vt 0.878507 0.464738
vn 1.0000 0.0000 0.0000
usemtl c2
s off
f 106/105/15 107/106/15 108/107/15
f 106/105/15 105/108/15 107/106/15
o Plane.002
v 12.799999 0.000000 4.040000
v 12.799999 0.000000 3.040000
v 12.799999 2.500000 4.040000
v 12.799999 2.500000 3.040000
vt 0.960809 0.641578
vt 1.000000 0.729999
vt 0.960809 0.729999
vt 1.000000 0.641578
vn 1.0000 0.0000 0.0000
usemtl c2
s off
f 109/109/16 112/110/16 111/111/16
f 109/109/16 110/112/16 112/110/16
o Plane.006
v 12.400000 0.000000 7.440000
v 12.400000 2.500000 7.440000
v 10.900000 0.000000 7.440000
v 10.900000 2.500000 7.440000
v 6.400000 0.000000 7.440000
v 6.400000 2.500000 7.440000
v 7.900000 0.000000 7.440000
v 7.900000 2.500000 7.440000
v 6.400000 0.000000 7.440000
v 6.400000 2.500000 7.440000
v 7.900000 0.000000 7.440000
v 7.900000 2.500000 7.440000
v 9.400000 0.000000 7.440000
v 7.900000 0.000000 7.440000
v 9.400000 2.500000 7.440000
v 7.900000 2.500000 7.440000
v 10.900000 0.000000 7.440000
v 9.400000 0.000000 7.440000
v 10.900000 2.500000 7.440000
v 9.400000 2.500000 7.440000
vt 0.907275 0.464738
vt 0.966061 0.553158
vt 0.907275 0.553158
vt 0.966061 0.464738
vt 0.907275 0.553158
vt 0.966062 0.553158
vt 0.907275 0.553158
vt 0.907275 0.641578
vt 0.907275 0.641578
vt 0.966062 0.641578
vt 0.966062 0.641578
vt 0.966062 0.553158
vt 0.885719 0.000000
vt 0.944506 0.088420
vt 0.885719 0.088420
vt 0.944506 0.000000
vt 0.878507 0.366414
vt 0.937293 0.454835
vt 0.878507 0.454835
vt 0.937293 0.366414
vn 0.0000 0.0000 -1.0000
vn 0.0000 0.0000 1.0000
usemtl c2
s off
f 113/113/17 116/114/17 114/115/17
f 113/113/17 115/116/17 116/114/17
f 119/117/18 121/118/18 123/119/18
f 120/120/18 123/119/18 124/121/18
f 118/122/18 124/121/18 122/123/18
f 117/124/18 122/123/18 121/118/18
f 119/117/18 118/122/18 117/124/18
f 119/117/18 120/120/18 118/122/18
f 125/125/17 128/126/17 127/127/17
f 125/125/17 126/128/17 128/126/17
f 129/129/17 132/130/17 131/131/17
f 129/129/17 130/132/17 132/130/17
f 119/117/18 117/124/18 121/118/18
f 120/120/18 119/117/18 123/119/18
f 118/122/18 120/120/18 124/121/18
f 117/124/18 118/122/18 122/123/18
o 2PLANTA-paredes.002_Plane.037
v 12.799999 2.700000 3.040000
v 12.799999 5.200000 4.040000
v 12.799999 5.200000 3.040000
v 12.799999 2.700000 4.040000
vt 0.000000 1.000000
vt 1.000000 0.000000
vt 1.000000 1.000000
vt 0.000000 0.000000
vn -1.0000 0.0000 0.0000
usemtl c2
s off
f 135/133/19 136/134/19 134/135/19
f 135/133/19 133/136/19 136/134/19
