# Blender v2.93.0 OBJ File: 'villaF1.blend'
# www.blender.org
mtllib villaF1.mtl
o 1PLANTA_paredes_Plane
v -1.000000 0.000000 1.920000
v -1.000000 0.000000 -0.600000
v 2.850000 0.000000 -1.000000
v 2.000000 0.000000 -1.000000
v 1.100000 0.000000 -1.000000
v 4.390000 0.000000 -1.000000
v 5.160000 0.000000 -1.000000
v 6.160000 0.000000 -1.000000
v 7.650000 0.000000 -1.000000
v 12.799999 0.000000 -0.600000
v -1.000000 0.000000 2.760000
v -1.000000 0.000000 3.240000
v -1.000000 0.000000 7.440000
v -0.600000 0.000000 7.440000
v 5.600000 0.000000 7.440000
v 6.400000 0.000000 7.440000
v 12.400000 0.000000 7.440000
v 12.799999 0.000000 7.440000
v 12.799999 0.000000 4.040000
v 12.799999 0.000000 3.040000
v 12.799999 0.000000 2.040000
v 4.999999 0.000000 3.040000
v 7.650000 0.000000 1.830000
v 2.850000 0.000000 1.830000
v 4.390000 0.000000 1.830000
v -1.000000 0.000000 3.240000
v 2.388554 0.000000 3.240000
v 1.000000 0.000000 1.920000
v 1.941427 0.000000 1.830000
v 5.090000 0.000000 1.830000
v 3.690000 0.000000 1.830000
v 5.829999 0.000000 1.830000
v 7.650000 0.000000 2.160592
v -0.600000 0.000000 6.670000
v 5.600000 0.000000 7.440000
v 6.400000 0.000000 7.440000
v 5.600000 0.000000 5.320000
v 6.400000 0.000000 5.320000
v -1.000000 2.500000 -0.600000
v -1.000000 2.500000 1.920000
v 12.799999 0.000000 -1.000000
v -1.000000 0.000000 -1.000000
v -1.000000 0.000000 6.270000
v 2.850000 2.500000 -1.000000
v 2.000000 2.500000 -1.000000
v 1.100000 2.500000 -1.000000
v 4.390000 2.500000 -1.000000
v 5.160000 2.500000 -1.000000
v 6.160000 2.500000 -1.000000
v 7.650000 2.500000 -1.000000
v 12.799999 2.500000 -0.600000
v -1.000000 2.500000 2.760000
v -1.000000 2.500000 7.440000
v -0.600000 2.500000 7.440000
v 12.400000 2.500000 7.440000
v 12.799999 2.500000 7.440000
v 12.799999 2.500000 4.040000
v 12.799999 2.500000 3.040000
v 12.799999 2.500000 2.040000
v 4.999999 2.500000 3.040000
v 7.650000 2.500000 1.830000
v 2.850000 2.500000 1.830000
v 4.390000 2.500000 1.830000
v -1.000000 2.500000 3.240000
v 2.388554 2.500000 3.240000
v 1.000000 2.500000 1.920000
v 1.941427 2.500000 1.830000
v 5.090000 2.500000 1.830000
v 3.690000 2.500000 1.830000
v 5.829999 2.500000 1.830000
v 7.650000 2.500000 2.160592
v -0.600000 2.500000 6.670000
v 5.600000 2.500000 7.440000
v 6.400000 2.500000 7.440000
v 5.600000 2.500000 5.320000
v 6.400000 2.500000 5.320000
v 12.799999 2.500000 -1.000000
v -1.000000 2.500000 -1.000000
v -0.600000 0.625000 6.670000
v -0.600000 1.875000 6.670000
v -0.600000 1.250000 6.670000
v -1.000000 1.875000 7.440000
v -1.000000 1.250000 4.410000
v -1.000000 1.875000 4.410000
v -1.000000 1.875000 6.270000
v -1.000000 1.250000 6.270000
v -1.000000 0.000000 0.401316
v -1.000000 2.500000 0.401316
vt 0.000000 0.000000
vt 0.000000 0.000000
vt 0.000000 0.000000
vt 0.000000 0.596330
vt 0.193498 0.000000
vt 0.193498 0.596330
vt 0.969040 0.717015
vt 1.000000 0.908146
vt 0.969040 0.908146
vt 0.386997 0.724006
vt 0.386997 0.749281
vt 0.193498 0.749281
vt 0.580495 0.717015
vt 0.744581 0.908146
vt 0.580495 0.908146
vt 0.928792 0.000000
vt 0.959752 0.191132
vt 0.928792 0.191132
vt 0.193498 0.113914
vt 0.386997 0.000000
vt 0.386997 0.113914
vt 0.907120 0.717015
vt 0.969040 0.908146
vt 0.907120 0.908146
vt 0.773993 0.382263
vt 0.891539 0.573395
vt 0.773993 0.573395
vt 0.914860 0.191132
vt 0.976780 0.382263
vt 0.914860 0.382263
vt 0.744582 0.717015
vt 0.907120 0.908146
vt 0.744582 0.908146
vt 0.773993 0.000000
vt 0.928792 0.191132
vt 0.773993 0.191132
vt 0.301857 0.749281
vt 0.379257 0.940412
vt 0.301857 0.940412
vt 0.247678 0.749281
vt 0.301858 0.749281
vt 0.301858 0.940412
vt 0.386997 0.617737
vt 0.580495 0.357798
vt 0.580495 0.617737
vt 0.773993 0.500654
vt 0.580495 0.717015
vt 0.580495 0.500654
vt 0.580495 0.441785
vt 0.580495 0.324048
vt 0.773993 0.441785
vt 0.773994 0.191132
vt 0.914861 0.382263
vt 0.773994 0.382263
vt 0.000000 0.000000
vt 0.193498 0.596330
vt 0.000000 0.812691
vt 0.000000 0.596330
vt 0.891539 0.382263
vt 0.961861 0.573394
vt 0.891539 0.573394
vt 0.773993 0.000000
vt 0.580495 0.259064
vt 0.580495 0.000000
vt 0.435371 0.357798
vt 0.435371 0.268349
vt 0.483746 0.268349
vt 0.386997 0.808868
vt 0.446594 0.856651
vt 0.446594 0.904434
vt 0.990712 0.191132
vt 0.959752 0.191132
vt 0.959752 0.143349
vt 0.483746 0.126147
vt 0.386997 0.036697
vt 0.580495 0.036697
vt 0.386997 0.617737
vt 0.551083 0.808869
vt 0.386997 0.808869
vt 0.961861 0.382263
vt 0.992821 0.573395
vt 0.961861 0.573395
vt 0.000000 0.000000
vt 1.000000 0.717015
vt 0.193498 0.724006
vt 0.193498 0.507645
vt 0.386997 0.507645
vt 0.744581 0.717015
vt 0.959752 0.000000
vt 0.386997 0.507645
vt 0.193498 0.507645
vt 0.193498 0.000000
vt 0.969040 0.717015
vt 0.891539 0.382263
vt 0.976780 0.191132
vt 0.907120 0.717015
vt 0.928792 0.000000
vt 0.379257 0.749281
vt 0.247678 0.940412
vt 0.193498 0.940412
vt 0.193498 0.749281
vt 0.386997 0.357798
vt 0.773993 0.717015
vt 0.580495 0.259064
vt 0.773993 0.259064
vt 0.773993 0.324048
vt 0.773993 0.500654
vt 0.580495 0.500654
vt 0.914861 0.191132
vt 0.193498 0.812691
vt 0.961861 0.382263
vt 0.773993 0.259064
vt 0.580495 0.268349
vt 0.580495 0.357798
vt 0.446594 1.000000
vt 0.386997 1.000000
vt 0.446594 0.952217
vt 0.446594 0.808868
vt 0.959752 0.000000
vt 0.990712 0.000000
vt 0.435371 0.126147
vt 0.386997 0.357798
vt 0.386997 0.000000
vt 0.580495 0.000000
vt 0.551083 0.617737
vt 0.992821 0.382263
vn 0.0000 0.0000 1.0000
vn 0.0000 0.0000 -1.0000
vn -1.0000 0.0000 0.0000
vn 1.0000 0.0000 0.0000
usemtl piso
s off
f 15/1/1 36/2/1 35/3/1
f 20/4/2 60/5/2 58/6/2
f 17/7/1 56/8/1 55/9/1
f 23/10/3 33/11/3 71/12/3
f 36/13/4 76/14/4 74/15/4
f 2/16/4 78/17/4 39/18/4
f 50/19/1 8/20/1 9/21/1
f 35/22/1 74/23/1 73/24/1
f 1/25/4 88/26/4 40/27/4
f 37/28/1 76/29/1 75/30/1
f 5/31/2 78/32/2 46/33/2
f 1/34/1 66/35/1 40/36/1
f 20/37/4 59/38/4 58/39/4
f 25/40/1 30/41/1 68/42/1
f 18/43/4 57/44/4 56/45/4
f 3/46/3 62/47/3 44/48/3
f 47/49/1 44/50/1 6/51/1
f 23/52/2 70/53/2 61/54/2
f 15/1/1 16/55/1 36/2/1
f 6/56/3 63/57/3 47/58/3
f 24/59/2 67/60/2 62/61/2
f 26/62/1 65/63/1 64/64/1
f 82/65/3 85/66/3 86/67/3
f 14/68/4 79/69/4 81/70/4
f 54/71/1 53/72/1 82/73/1
f 83/74/3 64/75/3 26/76/3
f 35/77/4 75/78/4 73/79/4
f 10/80/4 77/81/4 51/82/4
f 20/4/2 22/83/2 60/5/2
f 17/7/1 18/84/1 56/8/1
f 71/12/3 61/85/3 23/10/3
f 61/85/3 50/86/3 23/10/3
f 50/86/3 9/87/3 23/10/3
f 36/13/4 38/88/4 76/14/4
f 2/16/4 42/89/4 78/17/4
f 41/90/1 77/91/1 50/19/1
f 50/19/1 49/92/1 8/20/1
f 9/21/1 41/90/1 50/19/1
f 35/22/1 36/93/1 74/23/1
f 1/25/4 87/94/4 88/26/4
f 37/28/1 38/95/1 76/29/1
f 5/31/2 42/96/2 78/32/2
f 1/34/1 28/97/1 66/35/1
f 20/37/4 21/98/4 59/38/4
f 68/42/1 63/99/1 25/40/1
f 63/99/1 69/100/1 25/40/1
f 69/100/1 31/101/1 25/40/1
f 18/43/4 19/102/4 57/44/4
f 3/46/3 24/103/3 62/47/3
f 45/104/1 4/105/1 3/106/1
f 6/51/1 7/107/1 48/108/1
f 45/104/1 3/106/1 44/50/1
f 3/106/1 6/51/1 44/50/1
f 48/108/1 47/49/1 6/51/1
f 23/52/2 32/109/2 70/53/2
f 6/56/3 25/110/3 63/57/3
f 24/59/2 29/111/2 67/60/2
f 26/62/1 27/112/1 65/63/1
f 43/113/3 13/114/3 86/67/3
f 13/114/3 82/65/3 86/67/3
f 72/115/4 54/116/4 80/117/4
f 54/116/4 14/68/4 81/70/4
f 80/117/4 54/116/4 81/70/4
f 14/68/4 34/118/4 79/69/4
f 13/119/1 14/120/1 82/73/1
f 14/120/1 54/71/1 82/73/1
f 84/121/3 85/66/3 64/75/3
f 85/66/3 82/65/3 53/122/3
f 64/75/3 85/66/3 53/122/3
f 64/75/3 52/123/3 11/124/3
f 26/76/3 43/113/3 83/74/3
f 43/113/3 86/67/3 83/74/3
f 64/75/3 11/124/3 26/76/3
f 83/74/3 84/121/3 64/75/3
f 35/77/4 37/125/4 75/78/4
f 10/80/4 41/126/4 77/81/4
l 11 12
l 12 26
o 1planta_negro_Plane.016
v 5.600000 2.700000 7.440000
v 12.799999 2.700000 7.440000
v 5.600000 2.700000 7.440000
v 12.799999 2.700000 -1.000000
v 5.600000 2.700000 8.690001
v -2.260000 2.700000 -1.047000
v -2.260000 2.700000 8.690001
v -2.260000 2.700000 -1.047000
v 5.600000 2.500000 7.440005
v 12.799999 2.500000 7.440005
v 12.799999 2.500000 -0.999995
v 5.600000 2.500000 7.440005
v -2.260000 2.500000 -1.046994
v 5.600000 2.500000 8.690006
v -2.260000 2.500000 8.690006
v 12.799999 2.700000 7.440000
v 12.799999 2.700000 -1.000000
v -2.260000 2.700000 -1.047000
v 5.600000 2.500000 7.440005
vt 0.833333 0.478086
vt 0.666667 0.478086
vt 0.666667 0.000000
vt 0.166666 1.000000
vt 0.000001 0.000000
vt 0.166667 0.000000
vt 1.000000 0.083001
vt 0.833334 0.000000
vt 1.000000 0.000000
vt 0.000000 0.000000
vt 0.000000 0.000000
vt 0.000000 0.000000
vt 0.333334 0.560422
vt 0.500000 0.000000
vt 0.500000 0.560423
vt 0.666667 0.000000
vt 0.500000 0.521910
vt 0.500001 0.000000
vt 0.000000 0.000000
vt 0.000000 0.000000
vt 0.270331 0.992380
vt 0.166667 0.646544
vt 0.333334 0.000000
vt 0.333333 0.646544
vt 0.000000 0.000000
vt 0.000000 0.000000
vt 0.000000 0.000000
vt 0.833334 0.000000
vt 0.833333 0.478086
vt 0.666667 0.478086
vt 0.666667 0.478086
vt 0.000000 1.000000
vt 0.833334 0.083001
vt 0.333334 0.000000
vt 0.666667 0.521910
vt 0.000000 0.000000
vt 0.000000 0.000000
vt 0.269235 0.999823
vt 0.333333 0.646544
vt 0.166667 0.000000
vn 0.0000 0.0000 1.0000
vn -0.7071 0.0000 0.7071
vn 0.0031 0.0000 1.0000
vn -0.7060 0.0000 -0.7082
vn 0.9999 -0.0088 0.0016
vn 0.7071 0.0000 0.7071
vn 0.3162 0.0000 0.9487
vn 0.4472 0.0000 0.8944
vn -0.3162 0.0000 0.9487
vn -0.4472 0.0000 0.8944
usemtl negro
s 1
f 89/127/5 107/128/5 98/129/6
f 105/130/7 101/131/8 94/132/9
f 93/133/10 100/134/11 91/135/12
f 89/136/5 100/137/11 97/138/5
f 99/139/8 90/140/13 92/141/14
f 93/142/10 103/143/6 102/144/10
f 92/145/14 90/146/13 104/147/5
f 101/148/8 95/149/6 96/150/6
f 89/136/5 91/151/12 100/137/11
f 102/152/10 100/137/11 107/153/5
f 90/154/13 91/155/12 89/127/5
f 97/156/5 100/157/11 107/128/5
f 98/129/6 90/154/13 89/127/5
f 89/127/5 97/156/5 107/128/5
f 105/130/7 99/158/8 101/131/8
f 93/133/10 102/159/10 100/134/11
f 99/139/8 98/160/6 90/140/13
f 93/142/10 95/161/6 103/143/6
f 105/162/7 99/163/8 92/145/14
f 90/146/13 98/164/6 104/147/5
f 104/147/5 105/162/7 92/145/14
f 96/150/6 94/165/9 101/148/8
f 101/148/8 103/166/6 95/149/6
l 101 106
o 1PLANTA_duela_Plane.043
v 12.799999 2.700000 7.440000
v 5.600000 2.700000 7.440000
v 12.799999 2.700000 -1.000000
v 5.600000 2.700000 8.690001
v -2.260000 2.700000 -1.047000
v -2.260000 2.700000 8.690001
v 12.799999 2.700000 7.440000
v 12.799999 2.700000 -1.000000
v -2.260000 2.700000 -1.047000
vt 0.004827 0.000000
vt 0.871624 0.000000
vt 0.871624 0.478087
vt 1.000000 0.478087
vt 1.000000 1.000000
vt 0.000000 1.000000
vn 0.0000 -1.0000 0.0000
usemtl duela
s off
f 115/167/15 114/168/15 109/169/15
f 109/169/15 111/170/15 113/171/15
f 113/171/15 116/172/15 109/169/15
f 116/172/15 115/167/15 109/169/15
l 110 108
l 113 112
o 1PLANTA_techo_Plane.045
v 12.799999 2.500000 -0.999995
v 5.600000 2.500000 7.440005
v 12.799999 2.500000 7.440005
v -2.260000 2.500000 -1.046994
v 5.600000 2.500000 8.690006
v -2.260000 2.500000 8.690006
vt 0.608406 0.635698
vt 0.698014 1.000000
vt 0.000000 1.000000
vt 0.003369 0.301986
vt 0.608406 0.301986
vt 0.698014 0.635698
vn 0.0000 -1.0000 0.0000
usemtl duela
s off
f 118/173/16 122/174/16 120/175/16
f 120/175/16 117/176/16 118/173/16
f 117/176/16 119/177/16 118/173/16
f 118/173/16 121/178/16 122/174/16
o 2PLANTA-paredes_Plane.046
v 12.799999 2.700000 -0.600000
v -1.000000 2.700000 1.950000
v -1.000000 2.700000 5.720000
v 5.600000 2.700000 7.440000
v 6.400000 2.700000 7.440000
v 12.400000 2.700000 7.440000
v 12.799999 2.700000 7.440000
v 12.799999 2.700000 4.040000
v 12.799999 2.700000 3.040000
v 12.799999 2.700000 2.040000
v 10.349999 2.700000 3.040000
v 5.287999 2.700000 -1.000000
v -1.000000 2.700000 5.720000
v 9.839999 2.700000 -1.000000
v 5.600000 2.700000 7.440000
v 6.400000 2.700000 7.440000
v 5.600000 2.700000 5.320000
v 6.400000 2.700000 5.320000
v 12.799999 2.700000 -1.000000
v -1.000000 2.700000 -1.000000
v -2.260000 2.700000 -1.047000
v 2.177999 2.700000 -1.000000
v 9.839999 2.700000 1.950000
v 5.287999 2.700000 1.950000
v 2.177999 2.700000 1.950000
v -0.150000 2.700000 1.950000
v 1.727999 2.700000 1.950000
v 4.177999 2.700000 1.950000
v 8.706376 2.695708 -1.002766
v 8.706376 2.695708 1.947234
v 10.339999 2.700000 1.950000
v 9.306376 2.695708 1.947234
v 10.339999 2.700000 2.250000
v 12.799999 5.200000 -0.600000
v -1.000000 5.200000 1.950000
v 12.400000 5.200000 7.440000
v 12.799999 5.200000 7.440000
v 12.799999 5.200000 4.040000
v 12.799999 5.200000 3.040000
v 12.799999 5.200000 2.040000
v 10.349999 5.200000 3.040000
v 5.287999 5.200000 -1.000000
v -1.000000 5.200000 5.720000
v 9.839999 5.200000 -1.000000
v 5.600000 5.200000 7.440000
v 6.400000 5.200000 7.440000
v 5.600000 5.200000 5.320000
v 6.400000 5.200000 5.320000
v 12.799999 5.200000 -1.000000
v -1.000000 5.200000 -1.000000
v -0.600000 5.200000 5.720000
v -2.260000 5.200000 -1.047000
v 2.177999 5.200000 -1.000000
v 9.839999 5.200000 1.950000
v 5.287999 5.200000 1.950000
v 2.177999 5.200000 1.950000
v -0.150000 5.200000 1.950000
v 1.727999 5.200000 1.950000
v 4.177999 5.200000 1.950000
v 8.706376 5.195707 -1.002766
v 8.706376 5.195707 1.947234
v 10.339999 5.200000 1.950000
v 9.306376 5.195707 1.947234
v 10.339999 5.200000 2.250000
v 12.400000 5.200000 7.440000
v 6.400000 5.200000 7.440000
v 6.400000 5.200000 7.440000
v 12.400000 5.200000 7.440000
v -0.600000 5.200000 5.720000
v 6.400000 2.700000 7.440000
v -0.600000 5.200000 5.720000
v -1.000000 2.700000 5.720000
v -0.600000 2.700000 5.720000
v -1.000000 5.200000 5.720000
v -2.260000 2.700000 -1.047000
v 5.600000 2.700000 7.440000
v 6.400000 2.700000 7.440000
v 12.400000 2.700000 7.440000
v 12.799999 2.700000 7.440000
v 12.799999 2.700000 4.040000
v 12.799999 2.700000 -1.000000
v 9.839999 2.700000 -1.000000
v 8.706376 2.695708 -1.002766
v 5.600000 2.700000 7.440000
v -1.000000 2.700000 -1.000000
v 2.177999 2.700000 -1.000000
vt 0.000000 0.000000
vt 0.000000 0.000000
vt 0.000000 0.000000
vt 0.980733 0.361885
vt 0.945563 0.527888
vt 0.945563 0.361885
vt 0.439999 0.642097
vt 0.220188 0.446215
vt 0.439999 0.446215
vt 0.659810 0.616954
vt 0.439999 0.421071
vt 0.659810 0.421071
vt 0.000000 0.000000
vt 0.000000 0.000000
vt 0.000000 0.000000
vt 0.845734 0.693890
vt 0.659810 0.527888
vt 0.845734 0.527888
vt 0.835658 0.527888
vt 0.659810 0.527888
vt 0.659810 0.361885
vt 0.000000 0.000000
vt 1.000000 0.527888
vt 0.973623 0.693890
vt 0.973623 0.527888
vt 0.659810 0.421071
vt 0.439999 0.225188
vt 0.659810 0.225188
vt 0.985040 0.195883
vt 0.949960 0.361885
vt 0.949960 0.195883
vt 0.945563 0.361885
vt 0.875224 0.527888
vt 0.875224 0.361885
vt 0.976336 0.000000
vt 0.932374 0.166002
vt 0.932374 0.000000
vt 0.938453 0.527888
vt 0.850753 0.693890
vt 0.850753 0.527888
vt 0.949960 0.195883
vt 0.875224 0.361885
vt 0.875224 0.195883
vt 0.659810 0.195883
vt 0.879620 0.000000
vt 0.879620 0.195883
vt 0.932375 0.000000
vt 0.879621 0.166002
vt 0.879621 0.000000
vt 0.664829 0.527888
vt 0.850752 0.693890
vt 0.664829 0.693890
vt 0.000000 0.000000
vt 0.000000 0.000000
vt 0.000000 0.000000
vt 0.791140 0.578457
vt 0.650551 0.576003
vt 0.650530 0.578457
vt 0.439999 0.195883
vt 0.439999 0.446215
vt 0.220188 0.446215
vt 0.659810 0.225188
vt 0.439999 0.000000
vt 0.659810 0.000000
vt 0.875224 0.195883
vt 0.659809 0.361885
vt 0.659809 0.195883
vt 0.219811 0.803453
vt 0.219811 1.000000
vt 0.000000 1.000000
vt 0.973623 0.527888
vt 0.938453 0.693890
vt 0.938453 0.527888
vt 0.980733 0.527888
vt 0.220188 0.642097
vt 0.439999 0.616954
vt 0.000000 0.000000
vt 0.659810 0.693890
vt 0.835658 0.361885
vt 0.875224 0.361885
vt 0.875224 0.527888
vt 1.000000 0.693890
vt 0.439999 0.421071
vt 0.985040 0.361885
vt 0.945563 0.527888
vt 0.976336 0.166002
vt 0.938453 0.693890
vt 0.949960 0.361885
vt 0.659810 0.000000
vt 0.932375 0.166002
vt 0.850752 0.527888
vt 0.220188 0.195883
vt 0.220188 0.000000
vt 0.439999 0.000000
vt 0.439999 0.225188
vt 0.875224 0.361885
vt 0.000000 0.000000
vt 0.219811 0.000000
vt 0.219811 0.000000
vt 0.219811 0.083667
vt 0.219811 0.294689
vt 0.000000 0.083667
vt 0.219811 0.501196
vt 0.000000 0.294689
vt 0.000000 0.501196
vt 0.000378 0.728179
vt 0.220188 0.728179
vt 0.000000 0.803453
vt 0.973623 0.693890
vn 0.0000 0.0000 1.0000
vn -1.0000 0.0000 0.0000
vn 1.0000 0.0000 0.0000
vn 0.0000 0.0000 -1.0000
vn -0.0373 0.0000 0.9993
vn 0.0008 0.0000 1.0000
vn -0.0024 0.0000 1.0000
usemtl piso
s off
f 126/179/17 138/180/17 137/181/17
f 129/182/17 158/183/17 128/184/17
f 146/185/18 164/186/18 134/187/18
f 147/188/18 175/189/18 144/190/18
f 168/191/17 189/192/17 188/193/17
f 169/194/19 137/195/19 139/196/19
f 178/197/20 181/198/20 150/199/20
f 126/179/17 127/200/17 138/180/17
f 155/201/18 184/202/18 153/203/18
f 145/204/18 166/205/18 136/206/18
f 141/207/19 156/208/19 123/209/19
f 140/210/17 169/211/17 139/212/17
f 153/213/17 176/214/17 145/215/17
f 132/216/19 161/217/19 131/218/19
f 148/219/17 157/220/17 124/221/17
f 183/222/18 151/223/18 152/224/18
f 154/225/17 183/226/17 152/227/17
f 138/228/19 170/229/19 168/230/19
f 173/231/17 165/232/17 196/233/17
f 124/234/17 125/235/17 135/236/17
f 124/237/18 135/238/18 165/239/18
f 130/240/19 159/241/19 129/242/19
f 131/243/17 163/244/17 133/245/17
f 136/246/17 141/247/17 171/248/17
f 194/249/20 193/250/20 195/251/20
f 129/182/17 159/252/17 158/183/17
f 146/185/18 177/253/18 164/186/18
f 147/188/18 178/254/18 175/189/18
f 168/191/17 192/255/17 189/192/17
f 169/194/19 167/256/19 137/195/19
f 150/199/20 147/257/20 178/197/20
f 147/257/20 149/258/20 178/197/20
f 149/258/20 180/259/20 178/197/20
f 155/201/18 186/260/18 184/202/18
f 145/204/18 176/261/18 166/205/18
f 141/207/19 171/262/19 156/208/19
f 140/210/17 170/263/17 169/211/17
f 153/213/17 184/264/17 176/214/17
f 132/216/19 162/265/19 161/217/19
f 148/219/17 179/266/17 157/220/17
f 183/222/18 182/267/18 151/223/18
f 154/225/17 185/268/17 183/226/17
f 167/256/17 137/195/17 138/228/17
f 138/228/19 140/269/19 170/229/19
f 168/230/17 167/256/17 138/228/17
f 165/239/18 157/270/18 124/237/18
f 157/270/18 172/271/18 124/237/18
f 172/271/18 142/272/18 124/237/18
f 130/240/19 160/273/19 159/241/19
f 131/243/17 161/274/17 163/244/17
f 174/275/17 197/276/17 143/277/17
f 142/278/17 144/279/17 172/280/17
f 144/279/17 134/281/17 175/282/17
f 172/280/17 144/279/17 175/282/17
f 174/275/21 143/277/21 142/278/21
f 164/283/17 175/282/17 134/281/17
f 164/283/22 134/281/22 182/284/22
f 172/280/21 174/275/21 142/278/21
f 134/281/22 151/285/22 182/284/22
f 151/285/23 136/246/23 182/284/23
f 171/248/17 166/286/17 136/246/17
f 166/286/23 182/284/23 136/246/23
f 194/249/20 196/287/20 193/250/20
l 158 187
l 190 187
l 191 173
l 193 191
l 194 135
l 198 199
l 200 201
l 201 202
l 203 204
l 206 198
l 205 208
l 207 208
l 204 205
o 2PLANTA_negro_Plane.049
v -2.260000 5.200000 8.690001
v -2.260000 5.400000 -1.046994
v -2.260000 5.400000 8.690006
v -2.260000 5.400000 8.690006
v 5.600000 5.400000 8.690006
v 5.600000 5.400000 7.440005
v -2.260000 5.400000 8.690001
v 12.799999 5.400000 7.440005
v 12.799999 5.400000 -0.999995
v -2.260000 5.200000 8.690001
v -2.260000 5.400000 8.690001
v 12.799999 5.200000 -0.999995
v 12.799999 5.200000 7.440005
v 5.600000 5.200000 7.440005
v 5.600000 5.200000 8.690006
v -2.260000 5.200000 8.690006
v -2.260000 5.200000 8.690006
v -2.260000 5.200000 -1.046994
vt 0.000000 0.000000
vt 0.166667 1.000000
vt 0.000000 1.000000
vt 1.000000 0.000000
vt 0.833333 0.083001
vt 0.833333 0.000000
vt 0.556819 0.000177
vt 0.000000 0.000000
vt 0.556819 0.000177
vt 0.500000 0.000000
vt 0.333333 0.560422
vt 0.333333 0.000000
vt 0.833333 0.000000
vt 0.666667 0.478086
vt 0.666667 0.000000
vt 0.000000 0.000000
vt 0.333333 0.000000
vt 0.166667 0.646544
vt 0.166667 0.000000
vt 0.500000 0.521910
vt 0.666667 0.000000
vt 0.666667 0.521910
vt 0.166667 0.000000
vt 1.000000 0.083001
vt 0.500000 0.560422
vt 0.833333 0.478086
vt 0.333333 0.646544
vt 0.500000 0.000000
vn 0.0031 0.0000 -1.0000
vn 1.0000 0.0000 0.0000
vn 0.0000 0.0000 1.0000
vn -1.0000 0.0000 0.0000
usemtl negro
s off
f 217/288/24 226/289/24 210/290/24
f 223/291/25 214/292/25 213/293/25
f 225/294/26 212/295/26 211/296/26
f 221/297/25 217/298/25 216/299/25
f 216/300/26 222/301/26 221/302/26
f 225/294/26 224/303/26 212/295/26
f 226/304/27 211/305/27 210/306/27
f 224/307/26 213/308/26 212/309/26
f 217/288/24 220/310/24 226/289/24
f 223/291/25 222/311/25 214/292/25
f 221/297/25 220/312/25 217/298/25
f 216/300/26 214/313/26 222/301/26
f 226/304/27 225/314/27 211/305/27
f 224/307/26 223/315/26 213/308/26
l 218 209
l 215 219
o 2PLANTA_techo_Plane.035
v -2.260000 5.200000 8.690001
v -2.260000 5.200000 8.690001
v 12.799999 5.200000 -0.999995
v 12.799999 5.200000 7.440005
v 5.600000 5.200000 7.440005
v 5.600000 5.200000 8.690006
v -2.260000 5.200000 8.690006
v -2.260000 5.200000 8.690006
v -2.260000 5.200000 -1.046994
vt 0.824655 1.002490
vt 0.264320 1.002489
vt 0.264321 0.524479
vt 0.181333 0.524479
vt 0.172226 0.002656
vt 0.181333 0.002652
vt 0.827774 0.002652
vn 0.0000 -1.0000 0.0000
vn 0.0000 0.0000 1.0000
usemtl duela
s off
f 229/316/28 230/317/28 231/318/28
f 232/319/29 233/320/29 234/321/29
f 231/318/28 232/319/28 234/321/28
f 234/321/28 235/322/28 231/318/28
f 235/322/28 229/316/28 231/318/28
l 228 227
o 3PLANTA_firme_Plane.047
v -2.260000 5.400000 8.690006
v -2.260000 5.400000 8.690006
v -2.260000 5.400000 8.690001
v -2.260000 5.400000 8.690001
v 12.799999 5.400000 -0.999995
v 12.799999 5.400000 7.440005
v 5.600000 5.400000 7.440005
v 5.600000 5.400000 8.690006
v -2.260000 5.400000 8.690006
v -2.260000 5.400000 8.690006
v -2.260000 5.400000 -1.046994
vt 0.556819 0.000177
vt 0.000000 0.000000
vt 0.556819 0.000177
vt 0.000000 0.000000
vt 0.004827 0.000000
vt 0.871624 0.000000
vt 0.871624 0.478087
vt 0.478092 0.009188
vt 0.999915 0.000081
vt 0.999919 0.009188
vt 1.000000 0.478087
vt 1.000000 1.000000
vt 0.000000 1.000000
vn 0.0000 0.0000 1.0000
vn 0.0000 -1.0000 0.0000
usemtl negro
s off
f 245/323/30 237/324/30 236/325/30
f 245/323/30 244/326/30 237/324/30
f 240/327/31 241/328/31 242/329/31
f 243/330/30 244/331/30 245/332/30
f 242/329/31 243/333/31 245/334/31
f 245/334/31 246/335/31 242/329/31
f 246/335/31 240/327/31 242/329/31
l 238 239
